<svg xmlns="http://www.w3.org/2000/svg" width="1328" height="629" viewBox="0 0 1328 629" version="1.1"><path d="M 507 118.025 C 496.301 119.057, 478.601 121.741, 471 123.484 C 462.023 125.543, 450.817 127.098, 442.500 127.440 C 438.650 127.599, 429.898 129.139, 423.052 130.864 C 416.206 132.589, 409.523 134, 408.201 134 C 404.439 134, 381.178 139.727, 362.500 145.251 C 335.133 153.346, 312.639 163.484, 292.811 176.659 C 278.183 186.379, 273.882 192.324, 273.865 202.842 C 273.856 208.654, 275.819 212, 279.236 212 C 281.202 212, 286.820 208.449, 297.500 200.455 C 300.800 197.984, 305.525 195.026, 308 193.880 C 310.475 192.733, 314.975 190.652, 318 189.254 C 321.025 187.856, 324.863 185.674, 326.529 184.406 C 328.194 183.138, 334.944 180.299, 341.529 178.096 C 348.113 175.894, 356.684 172.958, 360.576 171.572 C 364.468 170.186, 370.768 168.349, 374.576 167.490 C 378.384 166.630, 382.175 165.650, 383 165.312 C 388.472 163.067, 403.258 159.759, 413 158.600 C 422.963 157.415, 430.305 155.951, 446 152.017 C 447.925 151.535, 452.200 150.824, 455.500 150.436 C 458.800 150.049, 462.625 149.284, 464 148.736 C 465.375 148.188, 470.100 147.399, 474.500 146.981 C 478.900 146.563, 486.816 145.680, 492.092 145.019 C 502.425 143.722, 511.527 144.066, 519.530 146.055 C 529.933 148.640, 536.825 144.609, 539.058 134.633 C 540.172 129.652, 540.094 129.109, 537.718 125.346 C 535.485 121.808, 534.352 121.099, 527.848 119.172 C 520.178 116.898, 519.227 116.846, 507 118.025 M 426 236.502 C 421.325 237.777, 412.325 239.837, 406 241.081 C 375.431 247.091, 366.125 249.275, 348.500 254.571 C 338 257.727, 320.472 262.359, 313 263.954 C 311.075 264.365, 305.450 266.147, 300.500 267.914 C 295.550 269.681, 287.965 271.745, 283.644 272.501 C 279.153 273.286, 274.226 274.874, 272.144 276.206 C 270.140 277.488, 267.284 279.156, 265.798 279.912 C 261.031 282.337, 260.073 289.946, 264.079 293.572 C 267.533 296.697, 277.757 296.531, 295 293.068 C 303.525 291.357, 313.425 288.889, 317 287.584 C 320.575 286.279, 329.575 283.772, 337 282.011 C 344.425 280.251, 353.235 277.728, 356.578 276.405 C 359.922 275.082, 363.972 273.980, 365.578 273.956 C 367.185 273.932, 370.300 273.228, 372.500 272.391 C 374.700 271.555, 380.775 269.848, 386 268.599 C 391.225 267.350, 397.075 265.378, 399 264.217 C 401.339 262.805, 404.158 262.111, 407.500 262.123 C 410.250 262.133, 414.525 261.409, 417 260.514 C 419.475 259.620, 425.225 258.014, 429.779 256.946 C 434.332 255.878, 440.182 253.940, 442.779 252.639 C 445.375 251.337, 449.249 249.955, 451.386 249.566 C 453.523 249.177, 456.891 247.990, 458.871 246.929 C 460.851 245.868, 462.979 245, 463.600 245 C 466.226 245, 470 240.810, 470 237.894 L 470 234.933 462.750 235.119 C 458.762 235.221, 450.775 235.053, 445 234.745 C 435.993 234.264, 433.292 234.514, 426 236.502 M 258 238.907 C 248.223 240.195, 241.193 246.398, 231.265 262.492 C 228.210 267.446, 223.730 274.285, 221.310 277.690 C 215.616 285.700, 196.495 325.149, 193.289 335.500 C 191.123 342.492, 190.746 345.957, 190.301 363 C 189.465 394.963, 191.287 406.189, 199.183 417.739 C 200.777 420.070, 202.750 423.873, 203.567 426.189 C 204.384 428.506, 205.753 431.175, 206.609 432.121 C 207.466 433.067, 208.916 435.215, 209.833 436.893 C 210.750 438.572, 215.754 443.314, 220.954 447.431 L 230.408 454.917 242.954 457.829 C 255.260 460.686, 267.554 461.322, 275.909 459.535 C 277.334 459.230, 283.711 458.341, 290.080 457.559 C 301.623 456.141, 310.121 453.969, 321.500 449.527 C 324.800 448.239, 329.544 446.711, 332.042 446.131 C 334.539 445.551, 340.077 443.484, 344.347 441.538 C 348.617 439.592, 352.648 438, 353.305 438 C 353.962 438.001, 357.425 436.595, 361 434.877 C 364.575 433.159, 369.300 430.959, 371.500 429.988 C 381.739 425.469, 393.827 419.522, 401.304 415.325 C 405.812 412.795, 410.850 410.046, 412.500 409.216 C 414.150 408.386, 416.214 407.095, 417.086 406.347 C 417.958 405.600, 421.404 403.664, 424.745 402.046 C 428.085 400.428, 431.110 398.630, 431.468 398.052 C 431.826 397.473, 432.913 397, 433.884 397 C 437.123 397, 472.520 372.542, 483.968 362.394 C 490.094 356.963, 495.869 352.122, 496.803 351.635 C 500.363 349.777, 510.384 339.211, 514.950 332.500 C 521.236 323.262, 523.522 318.634, 525.423 311.296 C 527.524 303.189, 527.420 298.733, 525.063 295.861 C 522.737 293.027, 520.301 293.986, 518.128 298.592 C 517.374 300.192, 515.083 303.300, 513.037 305.500 C 510.990 307.700, 507.558 312.580, 505.408 316.343 C 502.478 321.474, 499.873 324.414, 495 328.092 C 491.425 330.790, 485.800 335.032, 482.500 337.519 C 479.200 340.006, 475.150 343.397, 473.500 345.054 C 470.525 348.042, 464.307 352.091, 450.147 360.258 C 446.102 362.591, 439.823 366.413, 436.193 368.750 C 432.564 371.087, 429.083 373, 428.460 373 C 427.836 373, 424.756 374.840, 421.614 377.090 C 418.473 379.339, 413.112 382.308, 409.702 383.688 C 403.892 386.038, 393.699 391.807, 384.500 397.952 C 382.300 399.422, 376 402.354, 370.500 404.469 C 365 406.583, 356.597 410.241, 351.827 412.597 C 347.058 414.953, 341.208 417.393, 338.827 418.018 C 336.447 418.644, 328.875 420.885, 322 422.999 C 298.112 430.345, 290.718 432.031, 279.462 432.703 C 262.002 433.745, 256.947 433.534, 249.567 431.454 C 243.483 429.739, 241.822 428.702, 236.007 422.985 C 228.878 415.978, 224.484 408.120, 219.396 393.277 C 215.870 382.992, 214.876 360.651, 217.393 348.231 C 218.277 343.869, 219 339.439, 219 338.385 C 219 337.332, 219.834 334.902, 220.853 332.985 C 221.872 331.068, 223.293 327.702, 224.011 325.505 C 227.934 313.500, 242.829 286.425, 256.531 266.393 C 260.754 260.218, 267.241 248.143, 268.464 244.178 C 269.290 241.503, 266.678 237.903, 264.095 238.157 C 263.218 238.244, 260.475 238.581, 258 238.907 M 664.992 301.025 C 661.413 301.445, 654.663 302.918, 649.992 304.299 C 645.322 305.681, 640.150 307.110, 638.500 307.475 C 632.960 308.702, 623.569 313.414, 614.380 319.578 C 609.364 322.943, 603.222 326.682, 600.730 327.889 C 598.239 329.095, 593.343 332.683, 589.850 335.863 C 586.358 339.043, 580.800 343.475, 577.500 345.711 C 570.439 350.496, 568.399 352.620, 563.773 360 C 553.618 376.201, 543.947 398.059, 538.877 416.264 C 536.697 424.094, 534.087 432.750, 533.076 435.500 C 532.066 438.250, 530.933 442.525, 530.560 445 C 529.470 452.220, 526.210 465.068, 524.026 470.749 C 522.917 473.636, 521.358 480.020, 520.563 484.935 C 519.768 489.850, 518.435 495.191, 517.601 496.804 C 516.767 498.417, 515.194 504.859, 514.105 511.119 C 511.188 527.895, 509.161 537.480, 506.517 547 C 505.219 551.675, 503.507 557.975, 502.713 561 C 501.919 564.025, 499.816 571.423, 498.040 577.441 C 494.002 591.116, 493.673 599.325, 496.873 606.500 C 499.640 612.706, 504.628 618, 507.707 618 C 511.277 618, 518.686 614.128, 520.545 611.290 C 523.046 607.474, 530.930 578.265, 533.039 565 C 534.889 553.373, 541.089 526.850, 544.494 516 C 545.788 511.875, 547.571 504.675, 548.456 500 C 549.340 495.325, 550.693 488.800, 551.461 485.500 C 555.200 469.441, 555.898 466.138, 556.535 461.500 C 556.913 458.750, 558.078 453.788, 559.125 450.474 L 561.028 444.449 570.552 444.316 C 576.020 444.239, 580.661 443.696, 581.451 443.040 C 582.208 442.412, 586.579 440.832, 591.164 439.528 C 606.810 435.080, 611.055 433.118, 617.339 427.431 C 620.640 424.444, 624.148 422, 625.135 422 C 626.123 422, 629.083 421.324, 631.715 420.499 C 634.347 419.673, 638.750 418.351, 641.500 417.561 C 655.176 413.632, 667.382 408.770, 670.500 406.010 C 672.929 403.860, 681.593 400, 683.989 400 C 685.495 400, 693.915 394.954, 704.746 387.560 C 706.531 386.342, 711.312 382.361, 715.370 378.715 C 721.486 373.220, 723.431 370.666, 726.737 363.793 C 731.946 352.963, 733.472 345.308, 732.624 334.264 C 732.109 327.566, 731.365 324.572, 729.340 321.052 C 725.470 314.323, 724.139 313.074, 717 309.477 C 713.425 307.675, 708.700 305.284, 706.500 304.164 C 699.964 300.836, 679.694 299.303, 664.992 301.025 M 789.311 310.946 C 785.702 312.584, 780 319.108, 780 321.599 C 780 322.826, 772.644 334.335, 769.765 337.615 C 764.433 343.688, 757.393 363.480, 755.577 377.500 C 755.221 380.250, 754.222 386.212, 753.358 390.748 C 751.182 402.164, 752.370 408.310, 759.111 420.514 C 764.244 429.806, 764.382 429.950, 771.467 433.451 C 780.142 437.737, 787.540 439.362, 790.709 437.675 C 802.044 431.645, 807.140 427.681, 809.203 423.292 C 810.490 420.554, 812.566 418.054, 814.346 417.100 C 815.987 416.220, 818.944 414.118, 820.915 412.430 C 825.040 408.896, 830.331 406.529, 832.361 407.308 C 833.867 407.886, 838 420.273, 838 424.209 C 838 429.121, 848.482 442.341, 858.196 449.681 C 866.373 455.860, 878.397 459.381, 890.810 459.231 C 899.850 459.122, 921.331 445.873, 938.839 429.609 C 951.105 418.214, 966.147 399.538, 974.248 385.644 C 982.047 372.269, 982.233 371.686, 981.446 363.109 C 980.213 349.660, 976.453 344.178, 969.262 345.345 C 961.660 346.578, 957.572 352.248, 958.556 360.191 C 959.311 366.287, 954.876 373.559, 941.349 388.410 C 916.987 415.155, 906.167 424.368, 894.123 428.620 C 884.418 432.046, 881.236 431.778, 874.877 427 C 871.949 424.800, 868.995 423, 868.312 423 C 865.890 423, 860.039 416.803, 859.030 413.168 C 857.768 408.626, 857.683 395.463, 858.899 393.184 C 859.394 392.258, 860.233 387.899, 860.764 383.499 C 861.533 377.130, 862.689 373.589, 866.429 366.141 C 871.740 355.566, 872.412 350.782, 869.215 346.319 C 865.020 340.463, 862.653 339.005, 856.921 338.746 C 851.876 338.518, 851.130 338.792, 846.693 342.500 C 841.618 346.742, 836.549 355.429, 835.397 361.861 C 835.039 363.862, 832.952 368.200, 830.760 371.500 C 828.493 374.913, 826.539 379.225, 826.229 381.500 C 825.533 386.601, 815.457 398.459, 811.073 399.335 C 809.510 399.648, 806.522 401.063, 804.435 402.480 C 801.720 404.322, 799.479 405.011, 796.569 404.897 C 794.331 404.809, 790.458 405.070, 787.961 405.476 C 781.252 406.567, 780.663 405.408, 780.706 391.199 C 780.740 380.129, 780.910 379.163, 783.871 373.234 C 785.592 369.788, 787 366.629, 787 366.216 C 787 365.802, 788.510 363.227, 790.356 360.494 C 792.615 357.149, 795.312 354.704, 798.606 353.012 C 802.794 350.862, 803.699 349.851, 804.882 346 C 805.642 343.525, 807.581 337.886, 809.190 333.469 C 812.662 323.943, 812.304 322.141, 805.831 316.560 C 802.283 313.501, 794.984 308.931, 793.790 309.022 C 793.630 309.034, 791.615 309.900, 789.311 310.946 M 667.500 324.629 C 657.218 325.943, 651.664 327.598, 644.087 331.605 C 639.460 334.051, 633.668 336.558, 631.216 337.176 C 628.035 337.977, 624.715 340.134, 619.629 344.705 C 615.708 348.228, 610.376 352.212, 607.781 353.557 C 604.257 355.383, 601.550 358.090, 597.087 364.251 C 593.801 368.788, 589.496 374.648, 587.522 377.274 C 585.548 379.899, 583.469 383.274, 582.902 384.774 C 582.336 386.273, 579.228 392.900, 575.996 399.500 C 564.411 423.161, 565.301 428.360, 579.809 421.763 C 584.039 419.840, 589.525 417.716, 592 417.044 C 594.475 416.372, 602.350 412.981, 609.500 409.508 C 616.650 406.035, 623.625 402.875, 625 402.484 C 626.375 402.093, 629.525 400.733, 632 399.462 C 636.866 396.962, 650.167 390.672, 659 386.695 C 662.025 385.332, 667.359 382.031, 670.853 379.359 C 678.347 373.628, 688.988 367, 690.695 367 C 692.806 367, 700.638 361.164, 703.418 357.519 C 707.307 352.420, 708.851 348.079, 708.487 343.268 C 707.723 333.168, 703 327.616, 693.844 326.056 C 687.363 324.953, 671.634 324.100, 667.500 324.629 M 1057.500 342.496 C 1045.897 344.378, 1038.741 347.261, 1028.432 354.206 C 1009.598 366.893, 997.926 380.733, 994.565 394.363 C 990.406 411.230, 990.445 410.132, 993.717 417.968 C 997.301 426.553, 1001.552 432.811, 1006.128 436.237 C 1012.821 441.248, 1032.006 450.214, 1037.840 451.057 C 1040.953 451.507, 1045.975 452.402, 1049 453.045 C 1052.542 453.799, 1057.704 453.961, 1063.500 453.501 C 1068.450 453.108, 1075.425 452.707, 1079 452.610 C 1086.790 452.400, 1098.088 450.583, 1111 447.465 C 1116.225 446.203, 1125.535 444.224, 1131.689 443.067 C 1137.842 441.910, 1146.060 439.609, 1149.950 437.954 C 1153.839 436.298, 1159.379 434.507, 1162.261 433.972 C 1165.142 433.438, 1171.550 430.975, 1176.500 428.500 C 1181.450 426.025, 1186.412 424, 1187.527 424 C 1188.643 424, 1190.443 423.407, 1191.527 422.682 C 1192.612 421.957, 1195.525 420.610, 1198 419.688 C 1204.490 417.271, 1218.002 409.007, 1224.396 403.545 C 1230.586 398.256, 1235.003 390.551, 1234.994 385.054 C 1234.987 380.425, 1233.220 374.144, 1231.039 371 C 1230.086 369.625, 1228.785 366.965, 1228.149 365.089 C 1225.295 356.677, 1216.830 349.497, 1208.543 348.462 C 1198.833 347.249, 1194 349.548, 1194 355.380 C 1194 359.274, 1195.063 360.692, 1201.199 364.981 C 1205.722 368.143, 1209 372.972, 1209 376.473 C 1209 379.178, 1204.167 386.635, 1200.704 389.275 C 1197.133 391.996, 1188.834 396.339, 1185 397.494 C 1183.625 397.907, 1179.861 399.543, 1176.635 401.129 C 1173.409 402.715, 1167.559 404.983, 1163.635 406.170 C 1159.711 407.357, 1154.852 409.412, 1152.838 410.738 C 1150.588 412.220, 1146.539 413.528, 1142.338 414.133 C 1138.577 414.674, 1130.550 416.623, 1124.500 418.464 C 1104.132 424.664, 1077.378 428.485, 1059 427.820 C 1048.681 427.447, 1045.765 426.987, 1042.290 425.184 C 1039.974 423.983, 1037.202 423, 1036.130 423 C 1033.157 423, 1024.281 415.472, 1022.014 411.028 C 1019.452 406.006, 1019.484 404.986, 1022.400 398.686 C 1024.653 393.817, 1037.365 378, 1039.025 378 C 1039.442 378, 1041.970 376.039, 1044.642 373.641 C 1047.314 371.244, 1050.613 368.932, 1051.974 368.503 C 1053.335 368.074, 1056.742 366.200, 1059.546 364.338 C 1062.843 362.149, 1066.684 360.621, 1070.419 360.013 C 1073.595 359.496, 1076.992 358.820, 1077.968 358.510 C 1080.180 357.808, 1096.175 365.845, 1100.236 369.700 C 1104.516 373.762, 1107.633 380.631, 1108.312 387.500 C 1108.754 391.974, 1109.454 393.945, 1111.063 395.250 C 1117.212 400.235, 1124.051 392.686, 1122.650 382.460 C 1121.639 375.089, 1114.892 361.919, 1109.965 357.702 C 1103.460 352.134, 1095.783 348.150, 1088.232 346.424 C 1084.530 345.577, 1079.670 344.011, 1077.434 342.942 C 1072.815 340.736, 1068.891 340.648, 1057.500 342.496" stroke="none" fill="#fffcfc" fill-rule="evenodd"/><path d="" stroke="none" fill="#fcfcfc" fill-rule="evenodd"/></svg>